<?xml version="1.0" encoding="UTF-8" standalone="no"?>
<svg
   width="16"
   height="16"
   fill="currentColor"
   class="bi bi-bookmark"
   viewBox="0 0 16 16"
   version="1.1"
   id="svg1"
   sodipodi:docname="bookmark.svg"
   xml:space="preserve"
   inkscape:export-filename="bookmark-logo.png"
   inkscape:export-xdpi="384"
   inkscape:export-ydpi="384"
   xmlns:inkscape="http://www.inkscape.org/namespaces/inkscape"
   xmlns:sodipodi="http://sodipodi.sourceforge.net/DTD/sodipodi-0.dtd"
   xmlns="http://www.w3.org/2000/svg"
   xmlns:svg="http://www.w3.org/2000/svg"><defs
     id="defs1" /><sodipodi:namedview
     id="namedview1"
     pagecolor="#505050"
     bordercolor="#eeeeee"
     borderopacity="1"
     inkscape:showpageshadow="0"
     inkscape:pageopacity="0"
     inkscape:pagecheckerboard="0"
     inkscape:deskcolor="#505050"><inkscape:page
       x="0"
       y="0"
       width="16"
       height="16"
       id="page2"
       margin="0"
       bleed="0" /></sodipodi:namedview><path
     d="M 2,2 A 2,2 0 0 1 4,0 h 8 a 2,2 0 0 1 2,2 v 13.5 a 0.5,0.5 0 0 1 -0.777,0.416 L 8,13.101 2.777,15.916 A 0.5,0.5 0 0 1 2,15.5 Z M 4,1 A 1,1 0 0 0 3,2 v 12.566 l 4.723,-2.482 a 0.5,0.5 0 0 1 0.554,0 L 13,14.566 V 2 A 1,1 0 0 0 12,1 Z"
     id="path1" /><g
     style="fill:currentColor"
     id="g1"
     transform="matrix(0.82193871,0,0,0.82193871,1.4387358,0.4567332)"><path
       d="M 4.715,6.542 3.343,7.914 a 3.0002541,3.0002541 0 1 0 4.243,4.243 L 9.414,10.328 A 3,3 0 0 0 8.586,5.5 L 8,6.086 A 1,1 0 0 0 7.846,6.285 2,2 0 0 1 8.707,9.622 L 6.88,11.45 A 2.0011122,2.0011122 0 1 1 4.05,8.62 L 4.843,7.828 A 4,4 0 0 1 4.715,6.541 Z"
       id="path1-3" /><path
       d="M 6.586,4.672 A 3,3 0 0 0 7.414,9.5 L 8.189,8.724 A 2,2 0 0 1 7.293,5.378 L 9.12,3.55 a 2.0011122,2.0011122 0 1 1 2.83,2.83 l -0.793,0.792 c 0.112,0.42 0.155,0.855 0.128,1.287 L 12.657,7.087 A 3.0002541,3.0002541 0 1 0 8.414,2.844 Z"
       id="path2" /></g></svg>
