<?xml version="1.0" encoding="UTF-8" standalone="no"?>
<svg
   width="16"
   height="16"
   fill="currentColor"
   class="bi bi-bookmark"
   viewBox="0 0 16 16"
   version="1.1"
   id="svg1"
   xml:space="preserve"
   xmlns="http://www.w3.org/2000/svg"
   xmlns:svg="http://www.w3.org/2000/svg"><defs
     id="defs1" /><path
     d="M 5.5171735,5.4009169 4.4656879,6.4524026 A 2.3025232,2.3025232 0 1 0 7.7199208,9.7066354 L 9.1244599,8.3097713 A 2.3025232,2.3025232 0 0 0 8.4951036,4.6027089 L 8.042274,5.0555385 A 0.76750775,0.76750775 0 0 0 7.9271479,5.20904 1.5350155,1.5350155 0 0 1 8.5872045,7.7648408 L 7.1826653,9.16938 A 1.5358691,1.5358691 0 1 1 5.0106184,6.9973331 L 5.6169495,6.3910019 a 3.070031,3.070031 0 0 1 -0.099776,-0.990085 z"
     id="path1-3"
     style="fill:currentColor;stroke-width:0.767508" /><path
     d="M 6.9600881,3.9656774 A 2.3025232,2.3025232 0 0 0 7.5894444,7.6727399 L 8.1881005,7.0740838 A 1.5350155,1.5350155 0 0 1 7.4973435,4.510608 L 8.9018827,3.1060688 a 1.5358691,1.5358691 0 1 1 2.1720463,2.1720469 l -0.606331,0.6063311 c 0.08443,0.3223533 0.115126,0.6523816 0.09978,0.990085 L 11.61886,5.8230462 A 2.3065173,2.3065173 0 1 0 8.3569522,2.5611383 Z"
     id="path2"
     style="fill:currentColor;stroke-width:0.767508" /><path
     d="M 2,2 A 2,2 0 0 1 4,0 h 8 a 2,2 0 0 1 2,2 v 13.5 a 0.5,0.5 0 0 1 -0.78,0.416 L 8,13.1 2.78,15.91 A 0.5,0.5 0 0 1 2,15.5 Z M 4,1 A 1,1 0 0 0 3,2 v 12.57 l 4.72,-2.48 a 0.5,0.5 0 0 1 0.554,0 L 13,14.57 V 2 A 1,1 0 0 0 12,1 Z"
     id="path1" /></svg>
