<?xml version="1.0" encoding="UTF-8" standalone="no"?>
<svg
   width="16"
   height="16"
   fill="currentColor"
   class="bi bi-bookmark"
   viewBox="0 0 16 16"
   version="1.1"
   id="svg1"
   xml:space="preserve"
   xmlns="http://www.w3.org/2000/svg"
   xmlns:svg="http://www.w3.org/2000/svg"><defs
     id="defs1" /><path
     id="path1"
     style="fill:#d1d5db;fill-opacity:1;stroke:none;stroke-opacity:1"
     d="M 4,0 C 2.8954305,0 2,0.8954305 2,2 v 13.5 c 0.00338,0.398871 0.448833,0.633546 0.7792969,0.410156 L 8,13.099609 13.220703,15.916016 C 13.553419,16.140911 14.0014,15.901591 14,15.5 V 2 C 14,0.8954305 13.104569,0 12,0 Z m 6.006331,2.2271443 c 2.015535,0.068897 2.978261,2.5090102 1.552735,3.9355468 l -1.052735,1.0527344 c 0.01535,-0.3377034 -0.01518,-0.6678811 -0.09961,-0.9902344 L 11.014144,5.6177693 C 12.49883,4.1699692 10.290069,1.9612077 8.8422687,3.4458943 L 7.4379718,4.8501911 C 6.6068704,5.6861718 6.9891629,7.1081269 8.1274249,7.4146443 L 7.5297687,8.0123005 C 6.0970401,7.324751 5.7750618,5.4268792 6.9008624,4.3052693 L 8.2973468,2.9009724 C 8.7491289,2.4494126 9.3679411,2.2054238 10.006331,2.2271443 Z M 8.4340655,4.9439411 C 9.8674466,5.630684 10.190459,7.5287556 9.0649249,8.6509724 L 7.660628,10.047457 C 5.4923419,12.347043 2.1064841,8.9632161 4.4047687,6.7935505 L 5.457503,5.7408161 C 5.4366273,6.074115 5.4702724,6.408587 5.5571124,6.7310505 L 4.9496905,7.3384724 C 3.5010816,8.7876908 5.6749098,10.959566 7.1235187,9.5103474 L 8.5278155,8.1060505 C 9.3498809,7.2796172 8.9870701,5.8745301 7.8676593,5.5494099 7.8994403,5.4933435 7.9381564,5.4415032 7.9828937,5.395113 Z" /></svg>
